:SAMPLES-PER-SECOND 30
:FRAME-RANGE 1-1770
:FULLY-SPECIFIED
:DEGREES
332
root  -49.3506 37.6405 63.4037 -0.208542 51.0007 -3.73883
RightUpLeg  -25.1882 13.6572 -6.38574
RightLeg  19.9162 8.00312 2.99797
RightFoot  -3.83769 -1.12933 16.7101
RightToes  -1.33073e-015 0 -3.6325e-017
Spine  -4.24018 2.47817 8.81126
Spine1  6.49904 3.09177 -3.79241
HEad  -8.01809 68.985 -22.8133
LeftShoulder1  0.167412 2.7805 -26.05
LeftArm  2.56664 1.13303 -47.8374
LeftForeArm  34.9782 -0.0486639 -13.4095
LeftHand  0.0144722 6.05838 6.84492
RightShoulder  1.28982 1.06936 23.26
RightArm  -29.3163 -9.2583 33.757
RightForeArm  64.0803 -5.1184 1.08682
RightHand  0.413774 -7.86897 -19.917
LeftUpLeg  -0.502657 -16.6949 -7.70282
LeftLeg  32.1297 -10.3408 -6.58473
LeftFoot  -15.6544 0.587409 13.0291
LeftToes  1.09107e-011 -1.16422e-010 2.98337e-011
333
root  -48.7968 37.6738 63.944 -1.62369 53.4612 -5.37712
RightUpLeg  -23.9569 11.5721 -4.84465
RightLeg  21.3631 7.634 3.07114
RightFoot  -4.84785 -0.891736 15.0538
RightToes  -1.33073e-015 0 -3.6325e-017
Spine  -3.94556 2.30787 9.88427
Spine1  6.53841 2.69195 -2.52567
HEad  -8.81441 69.037 -24.3675
LeftShoulder1  0.21851 2.62207 -26.1131
LeftArm  -2.43828 2.98517 -46.3354
LeftForeArm  32.5168 5.00663 -12.2765
LeftHand  0.0461189 6.54219 7.30833
RightShoulder  1.33538 1.26619 22.9802
RightArm  -28.2506 -6.43533 33.6683
RightForeArm  61.365 -5.33041 1.77455
RightHand  0.458483 -8.06195 -20.3787
LeftUpLeg  -3.41517 -14.3688 -5.1256
LeftLeg  39.3004 -13.8796 -11.5411
LeftFoot  -11.4362 0.0765594 9.19013
LeftToes  1.09107e-011 -1.16422e-010 2.98337e-011
334
root  -48.3268 37.8199 64.3951 -2.92291 56.6307 -6.85522
RightUpLeg  -22.1756 11.5906 -4.04731
RightLeg  21.158 4.64864 1.72992
RightFoot  -5.40974 -0.748124 13.6653
RightToes  -1.33073e-015 0 -3.6325e-017
Spine  -3.67309 2.04265 10.4957
Spine1  6.76188 2.2885 -1.20978
HEad  -9.59965 67.8838 -24.975
LeftShoulder1  0.38244 2.05716 -24.6859
LeftArm  -5.71815 4.42944 -46.5636
LeftForeArm  29.7068 7.68262 -11.4791
LeftHand  0.0633381 6.86732 7.17379
RightShoulder  1.37144 1.36453 23.1524
RightArm  -28.4135 -3.26735 33.9691
RightForeArm  60.5763 -5.34264 1.68733
RightHand  0.402446 -7.67979 -20.8896
LeftUpLeg  -7.32266 -12.6364 -2.25065
LeftLeg  46.4244 -16.079 -16.97
LeftFoot  -7.06226 0.121463 -2.11599
LeftToes  1.09107e-011 -1.16422e-010 2.98337e-011
335
root  -47.8484 37.8521 64.8164 -4.07347 59.4698 -8.06331
RightUpLeg  -20.8658 7.23965 -2.94027
RightLeg  22.1309 6.00462 2.3165
RightFoot  -6.76348 -0.533111 12.1393
RightToes  -1.33073e-015 0 -3.6325e-017
Spine  -2.96522 2.04765 11.2389
Spine1  6.40846 2.34663 -0.78293
HEad  -9.81995 66.3216 -24.7718
LeftShoulder1  0.425853 1.8683 -23.6262
LeftArm  -5.62763 4.94926 -46.5192
LeftForeArm  27.5866 7.80523 -12.1022
LeftHand  0.0642113 7.079 6.46338
RightShoulder  1.43591 1.59208 23.1124
RightArm  -28.2251 -1.02951 34.6213
RightForeArm  59.8847 -5.39027 1.83089
RightHand  0.354541 -7.34653 -21.5379
LeftUpLeg  -11.2802 -10.3735 0.457912
LeftLeg  52.5129 -16.2246 -21.01
LeftFoot  -4.05488 1.24882 -19.0799
LeftToes  1.09107e-011 -1.16422e-010 2.98337e-011
336
root  -47.3399 38 65.1935 -4.16963 62.4292 -8.18883
RightUpLeg  -19.1678 3.01779 -2.70472
RightLeg  21.8761 7.23573 2.62454
RightFoot  -7.54997 -0.412327 10.8706
RightToes  -1.33073e-015 0 -3.6325e-017
Spine  -2.57568 2.13524 11.4019
Spine1  6.17614 2.51759 -0.860594
HEad  -9.79801 64.5917 -24.2695
LeftShoulder1  0.452732 1.74738 -23.0183
LeftArm  -5.25614 5.9379 -46.1293
LeftForeArm  28.6542 7.83932 -12.4025
LeftHand  0.0515846 7.23811 5.26325
RightShoulder  1.49238 1.81143 22.959
RightArm  -26.5872 1.12658 35.1553
RightForeArm  58.062 -5.61601 2.81346
RightHand  0.32131 -7.09849 -22.3187
LeftUpLeg  -14.8718 -7.36464 1.79556
LeftLeg  56.2397 -13.8457 -20.7029
LeftFoot  -3.14743 1.23899 -16.931
LeftToes  1.09107e-011 -1.16422e-010 2.98337e-011
337
root  -46.8316 38.2029 65.52 -3.1741 65.5911 -7.37347
RightUpLeg  -17.4268 -0.2585 -3.17614
RightLeg  20.8729 7.40761 2.36275
RightFoot  -8.11689 -0.341181 10.1304
RightToes  -1.33073e-015 0 -3.6325e-017
Spine  -2.4038 2.19148 11.0876
Spine1  5.97911 2.636 -1.18876
HEad  -10.6235 62.9024 -24.7877
LeftShoulder1  0.464176 1.7082 -23.0219
LeftArm  -4.15706 7.02663 -45.2334
LeftForeArm  30.6513 7.85023 -12.6398
LeftHand  0.0207947 6.80192 4.29954
RightShoulder  1.52242 1.95844 22.7054
RightArm  -25.5739 3.33165 36.095
RightForeArm  57.0464 -5.74226 3.37181
RightHand  0.215354 -6.54834 -22.3349
LeftUpLeg  -18.2332 -4.33553 2.40233
LeftLeg  57.0651 -10.1761 -15.9503
LeftFoot  -5.69198 0.716331 -13.7754
LeftToes  1.09107e-011 -1.16422e-010 2.98337e-011
338
root  -46.3323 38.3997 65.7965 -2.138 68.776 -6.67291
RightUpLeg  -15.6979 -3.19975 -3.69344
RightLeg  19.4996 7.22412 2.07298
RightFoot  -8.44856 -0.300985 9.61838
RightToes  -1.33073e-015 0 -3.6325e-017
Spine  -2.23592 2.31626 10.878
Spine1  5.76691 2.78393 -1.53528
HEad  -11.5893 61.0997 -25.5155
LeftShoulder1  0.496085 1.60701 -23.1769
LeftArm  -2.24779 8.14298 -44.5769
LeftForeArm  30.9773 7.90463 -13.0233
LeftHand  0.0210634 6.80811 4.3046
RightShoulder  1.54606 2.10145 22.3615
RightArm  -24.4959 5.59424 36.9591
RightForeArm  56.2466 -5.86031 3.92764
RightHand  0.144226 -6.18212 -22.2768
LeftUpLeg  -21.2596 -0.818815 2.89963
LeftLeg  55.7612 -7.42366 -11.0951
LeftFoot  -6.87101 0.454486 -10.5691
LeftToes  1.09107e-011 -1.16422e-010 2.98337e-011
